<svg width="64" height="65" viewBox="0 0 64 65" fill="none" xmlns="http://www.w3.org/2000/svg">
<rect y="0.5" width="64" height="64" rx="14" fill="#FFEBF5"/>
<path d="M46.8183 32.9871L45.9908 33.5486L46.8183 32.9871ZM46.7227 32.8103L45.7996 33.1949L46.7227 32.8103ZM48.6654 35.7092L47.838 36.2707L48.6654 35.7092ZM44.6844 39.2291L45.6834 39.2726L44.6844 39.2291ZM45.3418 38.2957L44.9846 37.3617L45.3418 38.2957ZM33.435 45.8345L33.2376 46.8148L33.435 45.8345ZM21.5529 50.3125L20.8734 51.0462L21.5529 50.3125ZM20.8063 42.3156L20.2306 43.1333L20.8063 42.3156ZM31.7902 51.1341L31.234 50.3031L31.7902 51.1341ZM46.2568 31.3103L47.247 31.4505L46.2568 31.3103ZM46.3237 31.8527L45.4007 32.2374L46.3237 31.8527ZM45.4182 29.0108C45.4182 29.7444 45.3665 30.4653 45.2667 31.1702L47.247 31.4505C47.3599 30.653 47.4182 29.8384 47.4182 29.0108H45.4182ZM30.1573 13.75C38.5857 13.75 45.4182 20.5825 45.4182 29.0108H47.4182C47.4182 19.4779 39.6902 11.75 30.1573 11.75V13.75ZM14.8965 29.0108C14.8965 20.5825 21.729 13.75 30.1573 13.75V11.75C20.6244 11.75 12.8965 19.4779 12.8965 29.0108H14.8965ZM21.382 41.498C17.4573 38.7345 14.8965 34.1717 14.8965 29.0108H12.8965C12.8965 34.8498 15.7966 40.0112 20.2306 43.1333L21.382 41.498ZM20.253 43.1594V49.6096H22.253V43.1594H20.253ZM20.8734 51.0462C25.2143 55.0659 30.085 53.4787 32.3464 51.9652L31.234 50.3031C29.3873 51.539 25.6239 52.7194 22.2323 49.5788L20.8734 51.0462ZM33.1853 50.3614V46.8296H31.1853V50.3614H33.1853ZM33.2376 46.8148C38.0034 47.7749 41.1463 47.1543 43.1168 45.4771C45.0692 43.8152 45.5932 41.3458 45.6834 39.2726L43.6853 39.1856C43.6033 41.0698 43.1339 42.8361 41.8204 43.9541C40.525 45.0567 38.1294 45.7601 33.6325 44.8542L33.2376 46.8148ZM45.6989 39.2298L48.5522 38.1388L47.838 36.2707L44.9846 37.3617L45.6989 39.2298ZM49.4929 35.1477L47.6458 32.4256L45.9908 33.5486L47.838 36.2707L49.4929 35.1477ZM47.6458 32.4256L47.2468 31.4681L45.4007 32.2374L45.7996 33.1949L47.6458 32.4256ZM47.6458 32.4256L45.7996 33.1949C45.8513 33.3189 45.9154 33.4374 45.9908 33.5486L47.6458 32.4256ZM48.5522 38.1388C49.7568 37.6782 50.217 36.2148 49.4929 35.1477L47.838 36.2707L48.5522 38.1388ZM45.6834 39.2726C45.6842 39.2548 45.6899 39.2418 45.6949 39.2346C45.6973 39.2313 45.6989 39.2299 45.6992 39.2296C45.6994 39.2295 45.6994 39.2295 45.6991 39.2297C45.6989 39.2298 45.6988 39.2298 45.6989 39.2298L44.9846 37.3617C44.202 37.6609 43.7196 38.3986 43.6853 39.1856L45.6834 39.2726ZM33.1853 46.8296C33.1853 46.8277 33.1854 46.828 33.1851 46.8296C33.1847 46.8311 33.1842 46.8323 33.1839 46.833C33.1833 46.8341 33.1847 46.8309 33.1909 46.826C33.1971 46.821 33.205 46.8171 33.2131 46.8151C33.2201 46.8134 33.2277 46.8129 33.2376 46.8148L33.6325 44.8542C32.4154 44.609 31.1853 45.511 31.1853 46.8296H33.1853ZM20.253 49.6096C20.253 50.1346 20.4611 50.6644 20.8734 51.0462L22.2323 49.5788C22.2438 49.5894 22.2492 49.5992 22.2514 49.6043C22.2533 49.6089 22.253 49.6105 22.253 49.6096H20.253ZM20.2306 43.1333C20.2417 43.1411 20.248 43.1495 20.251 43.1551C20.2537 43.1602 20.253 43.1614 20.253 43.1594H22.253C22.253 42.479 21.9086 41.8688 21.382 41.498L20.2306 43.1333ZM32.3464 51.9652C32.9114 51.587 33.1853 50.9625 33.1853 50.3614H31.1853C31.1853 50.3655 31.1842 50.3618 31.1896 50.351C31.1957 50.3388 31.2096 50.3194 31.234 50.3031L32.3464 51.9652ZM45.2667 31.1702C45.2168 31.5226 45.2569 31.8922 45.4007 32.2374L47.2468 31.4681C47.248 31.4708 47.2449 31.4653 47.247 31.4505L45.2667 31.1702Z" fill="#ED64A6"/>
<path d="M20.4044 30.6904L23.4044 21.6904L29.4044 25.1904L32.4044 19.6904L35.4044 20.6904L37.9044 22.6904L36.4044 28.1904L31.4044 28.6904L21.4044 30.6904H20.4044Z" fill="#B83280"/>
<path fill-rule="evenodd" clip-rule="evenodd" d="M34.4878 30.2303C35.001 30.2299 35.0861 30.1344 35.2494 29.9515C35.344 29.8455 35.4648 29.71 35.7102 29.5467C36.3901 29.9901 37.1923 30.2221 38.0108 30.2121L40.6097 29.2893C41.3418 28.7011 41.844 27.886 42.0325 26.9804C42.2208 26.0748 42.0838 25.1338 41.6444 24.3148C41.2051 23.4959 40.49 22.8485 39.6187 22.4813C39.4192 21.605 38.9177 20.8213 38.1974 20.2605L35.6591 19.3983L35.3733 19.3985C34.8082 18.5975 33.9603 18.0265 32.9909 17.7941L28.5985 17.5C27.6941 17.5739 26.8416 17.9417 26.1781 18.5442C25.8644 18.4724 25.5432 18.4354 25.2209 18.4337C24.4405 18.4359 23.6774 18.6579 23.0236 19.0729C22.37 19.4879 21.8537 20.0781 21.5371 20.7723L19.471 22.1991C18.9572 22.8778 18.6809 23.6991 18.683 24.5421C18.6782 24.8945 18.7266 25.2458 18.8267 25.5846C18.2849 26.27 17.9939 27.1117 18.0001 27.9765C17.9996 28.9793 18.394 29.944 19.1023 30.6725C19.16 31.3904 19.4183 32.0793 19.8494 32.6646C20.2804 33.2498 20.8678 33.7092 21.5479 33.993C22.3316 34.4703 22.9954 35.1125 23.4905 35.8723C23.9856 36.6322 24.1904 37.4904 24.2997 38.3839L28.6155 38.3803L28.6121 34.2097C28.6105 33.4692 28.8222 32.7431 29.2232 32.1137C29.284 32.0182 29.3408 31.9256 29.3958 31.8359V31.8358C29.7029 31.3345 29.9523 30.9273 30.531 30.6493C31.1704 30.4105 31.7462 30.0346 32.2158 29.5496C32.8856 29.9937 33.6773 30.231 34.4878 30.2303ZM21.1474 30.0885L29.5345 28.775L24.0904 22.7464L21.1474 30.0885ZM30.0541 25.1855L32.5373 20.5716L37.238 23.0085L34.755 27.6224L30.0541 25.1855Z" fill="#B83280"/>
</svg>
