<svg width="64" height="65" viewBox="0 0 64 65" fill="none" xmlns="http://www.w3.org/2000/svg">
<rect y="0.5" width="64" height="64" rx="14" fill="#F3EBFF"/>
<path d="M20.5814 47.9793C20.2091 47.6459 20 47.1937 20 46.7222V18.2778C20 17.8063 20.2091 17.3541 20.5814 17.0207C20.9537 16.6873 21.4586 16.5 21.9851 16.5H33.8947V48.5H21.9851C21.4586 48.5 20.9537 48.3127 20.5814 47.9793Z" fill="#D0B4FA"/>
<path d="M43.4714 47.9793C43.8099 47.6459 44 47.1937 44 46.7222V18.2778C44 17.8063 43.8099 17.3541 43.4714 17.0207C43.133 16.6873 42.674 16.5 42.1954 16.5H31.3684V48.5H42.1954C42.674 48.5 43.133 48.3127 43.4714 47.9793Z" fill="#D0B4FA"/>
<path d="M20.5814 47.9793C20.2091 47.6459 20 47.1937 20 46.7222V18.2778C20 17.8063 20.2091 17.3541 20.5814 17.0207C20.9537 16.6873 21.4586 16.5 21.9851 16.5H33.8947V48.5H21.9851C21.4586 48.5 20.9537 48.3127 20.5814 47.9793Z" stroke="#D0B4FA" stroke-width="3.95309" stroke-linecap="round" stroke-linejoin="round"/>
<path d="M43.4714 47.9793C43.8099 47.6459 44 47.1937 44 46.7222V18.2778C44 17.8063 43.8099 17.3541 43.4714 17.0207C43.133 16.6873 42.674 16.5 42.1954 16.5H31.3684V48.5H42.1954C42.674 48.5 43.133 48.3127 43.4714 47.9793Z" stroke="#D0B4FA" stroke-width="3.95309" stroke-linecap="round" stroke-linejoin="round"/>
<path d="M23 21.2896H37.4737" stroke="#5A25A9" stroke-width="2.5" stroke-linecap="round"/>
<path d="M23 26.8684H33.5263" stroke="#5A25A9" stroke-width="2.5" stroke-linecap="round"/>
<path d="M23 32.5H33.5263" stroke="#5A25A9" stroke-width="2.5" stroke-linecap="round"/>
<path d="M33 45.5H40.8947" stroke="#5A25A9" stroke-width="2.5" stroke-linecap="round"/>
</svg>
