<svg width="18" height="17" viewBox="0 0 18 17" fill="none" xmlns="http://www.w3.org/2000/svg">
<rect x="0.5" y="0.5" width="17" height="16" rx="3.5" fill="white"/>
<rect x="0.5" y="0.5" width="17" height="16" rx="3.5" stroke="#E0DCDC"/>
<path d="M8.57829 5.84351H5.79518C5.58428 5.84351 5.38203 5.92728 5.2329 6.07641C5.08378 6.22553 5 6.42779 5 6.63868V12.2049C5 12.4158 5.08378 12.6181 5.2329 12.7672C5.38203 12.9163 5.58428 13.0001 5.79518 13.0001H11.3614C11.5723 13.0001 11.7746 12.9163 11.9237 12.7672C12.0728 12.6181 12.1566 12.4158 12.1566 12.2049V9.4218" stroke="#4B4B4B" stroke-linecap="round" stroke-linejoin="round"/>
<path d="M11.5604 5.24703C11.7186 5.08886 11.9331 5 12.1568 5C12.3805 5 12.595 5.08886 12.7532 5.24703C12.9114 5.4052 13.0002 5.61973 13.0002 5.84341C13.0002 6.0671 12.9114 6.28162 12.7532 6.43979L8.97609 10.2169L7.38574 10.6145L7.78333 9.02412L11.5604 5.24703Z" stroke="#4B4B4B" stroke-linecap="round" stroke-linejoin="round"/>
</svg>
