<svg width="273" height="225" viewBox="0 0 273 225" fill="none" xmlns="http://www.w3.org/2000/svg">
<path d="M272.395 108.194C271.202 166.339 219.71 215.226 150.326 223.509C79.1529 231.954 13.3473 192 1.81636 134.018C-7.13002 89.5167 17.721 44.3655 59.8684 20.8154C84.5207 6.68529 112.155 -0.298535 142.374 0.351123C145.754 0.513538 148.935 -0.13612 152.314 0.0262941C156.489 0.188709 160.863 0.188709 165.038 0.838367C217.921 9.28392 258.876 42.7413 268.816 86.106C270.605 93.4147 271.202 100.886 272.395 108.194Z" fill="#7CD177"/>
<path fill-rule="evenodd" clip-rule="evenodd" d="M129.054 19.516C135.614 19.3536 137.205 21.1401 135.614 25.0381C135.423 25.4281 135.244 25.8368 135.062 26.2508C134.487 27.5608 133.889 28.9232 132.831 29.9105C128.258 34.4581 123.487 38.8433 118.716 43.0661C117.718 44.0173 116.163 44.6275 114.75 45.1819C114.474 45.2901 114.204 45.3962 113.944 45.5023C110.763 46.4768 107.582 46.152 104.998 44.203C102.215 42.254 101.419 39.493 102.612 36.7319C103.407 34.783 104.6 32.6716 106.39 31.3723C111.36 27.7991 116.728 24.5509 122.095 21.465C124.004 20.5555 126.421 20.0617 128.025 19.7343C128.425 19.6524 128.775 19.581 129.054 19.516ZM164.64 44.6903C162.454 50.3749 167.225 55.7345 175.177 55.8969C179.75 55.8969 183.328 53.1359 186.311 49.7252C186.838 49.0948 187.366 48.4713 187.891 47.8517L187.892 47.8501L187.892 47.85L187.893 47.8499C189.935 45.437 191.927 43.0849 193.666 40.63C195.058 38.8434 196.251 36.732 196.847 34.6206C198.04 31.0475 195.456 28.9361 190.883 29.4234C188.497 29.5858 186.112 30.2354 184.124 31.2099C179.75 33.1589 175.376 35.4327 171.201 37.7065C168.02 39.3307 165.634 41.7669 164.64 44.6903ZM78.0961 43.2046L78.0961 43.2046C77.6377 44.2697 77.2876 45.0833 76.7672 45.8272C75.9223 46.8423 75.0897 47.8676 74.2572 48.8928C71.7597 51.9685 69.2622 55.0443 66.4292 57.8459C61.2602 63.0431 55.8925 67.9155 50.5247 72.7878L50.5245 72.788C48.934 74.2498 47.1447 75.5491 44.9578 76.5236C41.5781 77.9853 38.1984 77.8229 35.2162 75.8739C32.2341 73.7625 31.4389 71.0015 32.6317 68.078C33.2281 66.4539 34.421 64.6673 36.0115 63.5304C37.114 62.7098 38.2105 61.8867 39.3054 61.0647C47.0951 55.2172 54.8051 49.4295 64.0435 45.0152C66.4292 43.8783 69.2125 42.9038 71.797 42.0917C73.006 41.7625 74.3966 41.6557 76.1526 41.5209C76.9955 41.4561 77.9225 41.385 78.9541 41.2796C78.6107 42.0091 78.3384 42.6416 78.0964 43.204L78.0961 43.2046ZM119.909 86.2684C113.149 86.106 108.179 80.9087 109.968 75.549C110.565 73.6001 111.956 71.4887 113.547 70.1894C119.71 65.1545 126.072 60.2821 132.831 55.7345C135.614 53.7855 139.591 52.811 143.169 51.9989C148.537 50.862 150.724 52.9734 148.935 57.3586C148.736 57.7643 148.537 58.2105 148.339 58.6567L148.338 58.6579L148.338 58.658C148.139 59.1046 147.941 59.5512 147.742 59.9572C142.97 68.2404 136.41 75.7115 129.253 82.8577C126.867 85.1315 123.686 86.2684 119.909 86.2684ZM115.336 171.374C115.137 174.46 113.745 177.708 111.559 180.794C106.787 187.453 100.624 193.137 94.0635 198.659C90.8825 201.258 87.1052 202.232 82.7314 201.096C77.5624 199.796 74.3814 195.411 75.7731 190.863C76.3695 188.914 77.5624 186.965 79.3516 185.504C84.3218 180.956 89.4909 176.571 95.0575 172.348C97.4205 170.556 100.357 169.231 103.136 167.978L103.136 167.978C103.631 167.755 104.12 167.534 104.6 167.313C105.992 166.664 107.582 166.339 109.173 166.176C113.547 165.689 115.535 167.151 115.336 171.374ZM152.854 146.219L152.853 146.22L152.853 146.22C152.552 146.866 152.25 147.514 151.917 148.149C152.314 154.158 158.676 158.056 165.436 156.107C168.02 155.457 170.605 154.32 172.195 152.696C177.762 147.174 183.13 141.327 188.1 135.318C189.889 133.206 190.684 130.445 191.082 128.009C191.678 124.274 189.094 122.325 184.521 123.137C182.334 123.462 179.949 124.111 177.961 125.086C169.412 129.471 161.857 134.831 155.694 141.49C154.405 142.894 153.632 144.552 152.854 146.219L152.854 146.219ZM141.579 196.223C141.976 195.573 142.308 194.887 142.639 194.202C143.302 192.83 143.964 191.459 145.157 190.376C148.139 187.452 151.519 184.691 155.297 182.093C159.869 179.007 164.64 176.246 169.411 173.486L169.412 173.485C172.195 172.023 175.177 170.561 178.159 169.749C179.75 169.262 182.136 169.587 183.527 170.399C185.515 171.373 185.317 173.322 184.323 174.947C182.931 177.22 181.539 179.332 179.949 181.281C176.37 185.341 172.593 189.564 168.617 193.299C165.635 196.223 162.255 198.821 158.875 201.258C157.285 202.395 155.098 203.207 152.911 203.694C146.748 205.156 141.778 201.583 141.579 196.223ZM238.977 151.133C239.059 150.923 239.131 150.738 239.194 150.585C239.591 144.738 236.013 141.977 230.446 142.789C227.663 143.438 224.681 144.575 222.494 146.037C216.927 149.935 211.758 154.158 206.589 158.381C204.8 159.842 203.607 161.791 202.812 163.74C200.426 170.237 207.185 176.084 215.138 174.135C217.722 173.648 220.108 172.348 222.096 170.886C228.06 166.501 232.832 161.304 236.808 155.62C237.813 154.114 238.536 152.262 238.977 151.133ZM164.442 94.5516C163.249 98.6119 167.026 102.185 173.189 102.185C173.587 102.023 174.117 101.86 174.706 101.68C175.884 101.319 177.298 100.886 178.358 100.236C180.943 98.2871 183.329 96.1757 185.317 93.9019C188.498 90.3288 191.48 86.5933 194.263 82.8577C196.111 80.3028 197.756 77.6648 199.415 75.0032C200.077 73.9425 200.74 72.878 201.42 71.8135C202.017 70.839 202.613 69.8646 202.812 68.8901C203.607 66.6163 202.215 65.4794 199.631 66.2914C198.04 66.7787 196.45 67.4283 195.058 68.2404C185.766 73.1525 178.143 79.7017 170.507 86.2625C169.811 86.8603 169.115 87.4582 168.418 88.055C166.43 89.6791 165.038 92.2778 164.442 94.5516ZM145.356 103.971C146.947 105.92 146.35 107.707 145.356 109.169C143.766 111.93 141.778 114.691 139.591 117.127C138.985 117.842 138.379 118.561 137.772 119.283C134.789 122.825 131.761 126.422 128.457 129.795C126.271 132.069 123.686 134.343 120.903 136.129C117.324 138.241 113.348 138.078 110.366 136.129C107.185 134.18 105.992 130.77 107.781 127.359C109.173 124.923 111.161 122.324 113.746 120.538C119.733 116.258 125.896 112.41 132.235 108.452L133.428 107.707C135.615 106.408 138 105.433 140.585 104.621C141.707 104.163 142.928 104.109 144.039 104.059H144.039C144.503 104.039 144.947 104.019 145.356 103.971ZM104.354 100.085L104.354 100.085C104.498 99.6431 104.642 99.2033 104.799 98.7747C104.6 98.6123 104.402 98.4905 104.203 98.3687C104.004 98.2468 103.805 98.125 103.606 97.9626C102.944 98.0786 102.281 98.1854 101.621 98.2918L101.62 98.292L101.62 98.292H101.619C99.5079 98.6323 97.4239 98.9682 95.4551 99.5868C84.5207 102.673 75.5743 108.357 67.2243 114.854C66.0315 115.828 65.0375 117.128 64.441 118.427C63.0494 121.35 63.447 124.111 66.2303 126.385C69.0136 128.659 72.3934 128.984 75.9719 127.847C77.5624 127.36 79.1529 126.548 80.3457 125.573C85.1171 122 89.6897 118.427 93.8647 114.529C96.9048 111.607 99.4623 108.16 101.971 104.777C102.252 104.4 102.531 104.023 102.811 103.647C103.543 102.571 103.951 101.319 104.354 100.085ZM53.5065 97.4749C53.1188 98.5309 52.794 99.604 52.4708 100.672C51.7999 102.889 51.1356 105.084 49.928 107.057C47.1447 111.93 44.1625 116.64 40.584 121.025C38.7947 123.136 36.0114 125.085 33.2281 126.385C29.6495 128.009 25.8722 127.522 22.6912 125.248C19.5103 122.812 19.1127 119.888 20.5043 116.64C20.5812 116.493 20.6581 116.344 20.7359 116.193L20.736 116.193C21.2612 115.173 21.8254 114.078 22.6912 113.229C23.5106 112.473 24.323 111.715 25.1339 110.957C30.4225 106.019 35.6506 101.136 42.3733 97.4749C44.3614 96.338 46.7471 95.3635 49.1328 94.7139C51.9161 94.0642 53.1089 95.2011 53.5065 97.4749ZM253.11 97.1505C253.707 94.227 251.52 92.4404 247.146 92.6028C246.74 92.7135 246.241 92.8054 245.705 92.904L245.704 92.9041L245.704 92.9042C244.667 93.095 243.491 93.3116 242.573 93.7398L241.569 94.3549L241.569 94.355C235.563 98.033 229.745 101.596 224.283 105.596C221.5 107.545 220.307 110.468 220.307 113.392C220.108 120.051 227.663 123.949 234.621 120.538C237.206 119.239 239.591 117.452 241.182 115.503C244.562 111.443 247.742 107.22 250.725 102.997C251.917 101.211 252.713 99.0994 253.11 97.1505ZM90.8825 140.353C92.2742 142.789 91.479 145.063 90.2861 147.012C88.0992 150.585 85.7135 154.158 82.7314 157.406C78.954 161.629 74.779 165.527 70.6041 169.425C69.4112 170.562 67.8207 171.699 66.2303 172.348C61.2601 174.622 55.6934 172.186 54.8982 167.638C54.3018 164.877 55.4946 162.441 57.6815 160.492C66.6279 152.371 76.9659 145.387 89.0932 140.677C89.3243 140.583 89.6225 140.544 89.9878 140.495H89.9879C90.2512 140.46 90.5494 140.421 90.8825 140.353ZM101.964 54.2789C102.148 53.6773 102.347 53.0277 102.612 52.3239C102.088 52.419 101.667 52.5002 101.317 52.5675C100.474 52.7299 100.052 52.8111 99.6302 52.8111C99.1994 53.0122 98.7876 53.1978 98.389 53.3774C97.5 53.778 96.6764 54.1492 95.8528 54.5977C87.591 58.965 80.7811 64.5185 73.9174 70.1159C72.3578 71.3878 70.7954 72.662 69.2125 73.925C66.8268 75.874 65.4351 78.1478 65.2363 80.9088C65.0375 83.5075 66.0316 85.6189 68.8149 86.9182C71.5982 88.3799 74.5803 88.2175 76.966 86.7558C79.3517 85.294 81.3398 83.3451 83.1291 81.3961C86.31 77.823 89.0934 74.0874 91.8767 70.3519C92.6651 69.1925 93.4535 68.0445 94.2383 66.9018C96.4218 63.7225 98.5768 60.5845 100.624 57.3587C101.287 56.4925 101.596 55.4819 101.964 54.2789Z" fill="#B6EFA0"/>
</svg>
