<svg width="64" height="65" viewBox="0 0 64 65" fill="none" xmlns="http://www.w3.org/2000/svg">
<rect y="0.5" width="64" height="64" rx="14" fill="#E9F6FF"/>
<path d="M32 24.2502C32 22.9242 32.5268 21.6524 33.4645 20.7147C34.4021 19.777 35.6739 19.2502 37 19.2502H47C47.3315 19.2502 47.6495 19.3819 47.8839 19.6164C48.1183 19.8508 48.25 20.1687 48.25 20.5002V40.5002C48.25 40.8318 48.1183 41.1497 47.8839 41.3841C47.6495 41.6185 47.3315 41.7502 47 41.7502H37C35.6739 41.7502 34.4021 42.277 33.4645 43.2147C32.5268 44.1524 32 45.4242 32 46.7502" fill="#90CAF4"/>
<path d="M32 24.2502C32 22.9242 32.5268 21.6524 33.4645 20.7147C34.4021 19.777 35.6739 19.2502 37 19.2502H47C47.3315 19.2502 47.6495 19.3819 47.8839 19.6164C48.1183 19.8508 48.25 20.1687 48.25 20.5002V40.5002C48.25 40.8318 48.1183 41.1497 47.8839 41.3841C47.6495 41.6185 47.3315 41.7502 47 41.7502H37C35.6739 41.7502 34.4021 42.277 33.4645 43.2147C32.5268 44.1524 32 45.4242 32 46.7502" stroke="#90CAF4" stroke-width="3.00435" stroke-linecap="round" stroke-linejoin="round"/>
<path d="M15.7505 40.5002C15.7505 40.8318 15.8822 41.1497 16.1166 41.3841C16.3511 41.6185 16.669 41.7502 17.0005 41.7502H27.0005C28.3266 41.7502 29.5984 42.277 30.5361 43.2147C31.4737 44.1524 32.0005 45.4242 32.0005 46.7502V24.2502C32.0005 22.9242 31.4737 21.6524 30.5361 20.7147C29.5984 19.777 28.3266 19.2502 27.0005 19.2502H17.0005C16.669 19.2502 16.3511 19.3819 16.1166 19.6164C15.8822 19.8508 15.7505 20.1687 15.7505 20.5002V40.5002Z" fill="#90CAF4" stroke="#90CAF4" stroke-width="3.00435" stroke-linecap="round" stroke-linejoin="round"/>
<path d="M21.0305 27.5393H27.0392" stroke="#2B6CB0" stroke-width="3.00435" stroke-linecap="round"/>
<path d="M21.0305 32.5464H25.0363" stroke="#2B6CB0" stroke-width="3.00435" stroke-linecap="round"/>
<path d="M32.0464 19.9656V46.3788" stroke="#2B6CB0" stroke-width="2.0029" stroke-linecap="round"/>
</svg>
