<svg width="26" height="25" viewBox="0 0 26 25" fill="none" xmlns="http://www.w3.org/2000/svg">
<path d="M0 13.0828C0.5 9.30113 2.4 5.07979 6.5 1.91378C9.1 -0.108949 12.2 -0.460728 15.4 0.770498C15.8 0.946387 16.1 1.12228 16.5 1.21022C19.1 1.73789 21 2.96911 22.4 4.9039C24.2 7.36635 25.4 10.0926 25.4 12.9948C25.4 17.392 21.5 22.0531 16.5 23.8999C14.5 24.6035 12.5 24.6914 10.4 24.3397C4.7 23.4602 0 18.7992 0 13.0828ZM11.7 5.78334C9.3 8.15785 8 10.7082 7.5 13.5225C7.2 15.3693 7.9 16.6885 9.6 17.6559C10.2 18.0956 11 18.3594 11.7 18.6233C15.4 19.8545 19.6 17.392 19.6 13.8743C19.6 10.0926 16.3 6.57485 11.7 5.78334Z" fill="#DEB3FF"/>
</svg>
