<svg width="29" height="36" viewBox="0 0 29 36" fill="none" xmlns="http://www.w3.org/2000/svg">
<path d="M13.8317 35.125C13.0006 34.625 12.3772 34.325 11.8577 33.825C10.2993 32.225 8.84473 30.625 7.39019 28.925C5.41616 26.725 3.64993 24.525 1.6759 22.325C0.117461 20.625 0.0135647 20.125 1.15642 18.125C4.16941 12.525 8.32525 7.625 12.1694 2.525C12.6889 1.825 13.4162 1.225 14.1434 0.625C15.598 -0.375 16.9486 -0.175 17.9876 1.225C21.3123 6.225 24.533 11.225 27.7538 16.225C29.2084 18.525 29.0006 18.925 27.1304 20.825C24.533 23.425 21.9356 26.025 19.546 28.725C18.1954 30.225 17.0525 31.925 15.8058 33.425C15.1824 34.125 14.559 34.525 13.8317 35.125ZM15.7019 3.625C11.3382 9.025 8.11746 14.625 4.58499 19.825C7.70188 23.725 10.611 27.425 13.624 31.125C17.7798 26.625 21.624 22.325 25.7798 17.825C22.4551 13.225 19.2343 8.625 15.7019 3.625Z" fill="#63B3ED"/>
</svg>
