<svg width="56" height="73" viewBox="0 0 56 73" fill="none" xmlns="http://www.w3.org/2000/svg">
<path d="M13.7009 26.2071C11.9389 26.8324 10.3198 27.4194 8.70065 28.0064C8.33682 28.1345 7.98064 28.2912 7.70459 28.5183C7.14483 28.9439 6.96832 29.5425 7.10259 30.2722C7.29812 31.2305 7.70694 32.0704 8.27956 32.8358C8.95527 33.7574 9.6519 34.6427 10.398 35.4841C12.2128 37.5705 14.1266 39.5692 16.1394 41.4801C20.1057 45.1952 24.0358 48.8894 27.9317 52.6847C29.7919 54.4833 31.4541 56.4575 33.2362 58.3077C35.026 60.1864 36.8729 62.0499 38.6627 63.9286C39.6492 64.9813 40.9244 65.2828 42.2528 65.325C43.7964 65.3708 45.0526 64.1154 45.127 62.564C45.179 61.3863 44.9089 60.2642 44.2046 59.3503C42.9354 57.6996 41.5671 56.1367 40.1989 54.5737C39.76 54.0788 39.1803 53.7441 38.5169 53.5543C37.5218 53.2697 37.1105 53.5636 37.1346 54.5679C37.129 54.6613 37.1519 54.747 37.1561 54.9909C36.8795 54.7588 36.6906 54.6256 36.5227 54.4562C33.7812 51.883 31.1805 49.1496 28.7283 46.2845C24.8925 41.7993 20.8169 37.5621 16.7337 33.2964C16.1345 32.6606 15.465 32.105 14.8373 31.4769C14.6694 31.3075 14.5091 31.1666 14.2973 30.9477C15.2822 30.6226 16.1813 30.3204 17.0518 30.0259C17.3013 29.9284 17.4825 30.033 17.6866 30.2233C18.175 30.6744 18.6634 31.1255 19.1518 31.5765C20.1878 32.5853 21.3906 32.8449 22.7602 32.3554C23.1526 32.2197 23.5812 32.1048 23.9507 31.8833C24.9676 31.3352 25.2502 30.2181 24.6735 29.2088C24.5036 28.9174 24.2841 28.6699 24.0647 28.4225C20.0483 24.292 16.0681 20.1824 12.0308 16.0881C10.8555 14.9023 9.58122 13.8042 8.34875 12.6337C8.18085 12.4643 8.0206 12.3235 7.80881 12.1046C8.20122 11.9688 8.48698 11.8923 8.786 11.7509C9.46977 11.4452 9.73406 10.9455 9.65134 10.2939C9.57832 9.7928 9.32264 9.52441 8.81183 9.44689C8.49544 9.40915 8.24181 9.26272 7.96726 9.15252C7.65648 9.0214 7.23139 8.92091 6.88848 9.01279C5.49387 9.29459 4.16406 9.58966 2.82099 9.94953C2.3352 10.0797 1.84381 10.3033 1.38865 10.5477C0.449744 11.0443 0.191607 11.9098 0.7377 12.8048C1.0184 13.2809 1.38484 13.734 1.82168 14.107C3.34961 15.3515 4.7653 16.7486 6.08965 18.262C8.33568 20.8148 10.673 23.2513 13.1094 25.5999C13.2773 25.7693 13.4452 25.9387 13.7009 26.2071Z" fill="#0F755C"/>
<path d="M38.0765 32.4772C38.949 32.3046 39.7645 32.1474 40.6008 31.9539C41.9097 31.6951 43.2472 31.4286 44.5484 31.1412C44.8418 31.0932 45.099 31.0243 45.3771 30.9191C46.461 30.5062 46.8523 29.4519 46.3327 28.4273C46.2735 28.3206 46.2143 28.214 46.1342 28.1436C43.9447 25.1162 42.1038 21.9035 40.3124 18.6469C38.3071 15.0495 36.2733 11.4598 34.2471 7.89859C33.848 7.20921 33.4203 6.52749 33.0212 5.83812C32.4675 4.91453 31.7198 4.41042 30.6033 4.58708C29.4297 4.77905 28.2616 4.87764 27.0956 5.09819C21.8677 6.1621 16.5709 6.96882 11.295 7.73931C9.97081 7.94099 8.62569 8.1789 7.3168 8.43774C6.85193 8.53167 6.40237 8.68276 6.00436 8.91191C4.98739 9.46006 4.80582 10.6113 5.50245 11.4966C5.72956 11.7727 6.00616 12.0048 6.28276 12.237C7.01152 12.8993 7.73262 13.533 8.4328 14.203C10.3445 16.0797 12.2277 17.964 14.1603 19.8045C16.093 21.645 18.0542 23.4778 20.0154 25.3106C20.584 25.8321 21.1448 26.325 21.7057 26.8179C21.8659 26.9587 22.0338 27.1281 22.2818 27.3679C21.9961 27.4445 21.8246 27.4904 21.6532 27.5364C19.289 28.2005 16.9172 28.836 14.5531 29.5001C14.3816 29.546 14.1893 29.6282 14.0255 29.7027C13.0008 30.2223 12.7259 31.3679 13.4016 32.2895C13.644 32.6227 13.9931 32.8967 14.3345 33.1421C15.9196 34.3713 17.5256 35.5642 19.0897 36.8296C19.8318 37.4271 20.5396 38.1256 21.1903 38.8395C24.6841 42.62 28.1417 46.3795 31.586 50.2039C35.1467 54.1196 38.6655 58.1078 42.1976 62.0311C42.4609 62.3281 42.7528 62.6174 43.1152 62.8266C43.9924 63.3572 44.8915 63.0551 45.4298 62.2064C45.814 61.5828 45.9466 60.9347 45.7915 60.2412C45.5326 58.9323 45.2947 57.5872 44.9139 56.2804C43.5725 51.6169 42.1453 46.9764 40.8038 42.3129C39.8967 39.1563 39.0468 35.9844 38.1683 32.8201C38.0882 32.7497 38.0862 32.6277 38.0765 32.4772Z" fill="#7CD177"/>
</svg>
