<svg width="25" height="37" viewBox="0 0 25 37" fill="none" xmlns="http://www.w3.org/2000/svg">
<path d="M14.5981 3.35076C14.5981 6.81706 16.0933 9.67166 18.3362 12.1185C19.7635 13.6817 21.4627 14.9731 23.0259 16.4004C23.4337 16.7402 23.9095 17.0121 24.2493 17.4199C25.2009 18.5073 24.929 19.8667 23.6376 20.5463C23.2298 20.7502 22.822 20.8182 22.4142 21.0221C17.5886 22.9931 14.0543 26.1876 12.8989 31.5569C12.695 32.4405 12.4911 33.2561 12.2872 34.0717C12.1513 34.6154 11.9474 35.2271 11.7435 35.7709C11.4716 36.5185 10.9279 37.0622 10.0443 36.9943C9.16073 36.9263 8.68496 36.3826 8.48106 35.567C8.20919 34.5475 8.00529 33.46 7.73343 32.3725C7.05376 29.5859 6.37409 26.7993 5.01476 24.2165C4.13119 22.4494 2.97576 20.9541 1.27659 19.7987C-0.354609 18.7112 -0.422575 17.3519 1.07269 16.0605C2.29609 15.041 3.72339 14.1575 5.01476 13.2059C8.07326 10.963 9.84039 7.97249 10.1123 4.09839C10.2482 3.48669 10.2482 2.67109 10.3841 1.85549C10.5201 0.292257 10.724 0.0883567 12.0833 0.02039C13.4426 -0.115543 14.1903 0.42819 14.4621 1.65159C14.5981 2.19532 14.5301 2.80702 14.5981 3.35076Z" fill="#FAB84B"/>
</svg>
